<?xml version="1.0" encoding="UTF-8" standalone="no"?>
<!-- Created with Inkscape (http://www.inkscape.org/) -->

<svg
   xmlns:dc="http://purl.org/dc/elements/1.1/"
   xmlns:cc="http://creativecommons.org/ns#"
   xmlns:rdf="http://www.w3.org/1999/02/22-rdf-syntax-ns#"
   xmlns:svg="http://www.w3.org/2000/svg"
   xmlns="http://www.w3.org/2000/svg"
   xmlns:sodipodi="http://sodipodi.sourceforge.net/DTD/sodipodi-0.dtd"
   xmlns:inkscape="http://www.inkscape.org/namespaces/inkscape"
   width="12mm"
   height="12mm"
   viewBox="0 0 42.519685 42.519685"
   id="svg2"
   version="1.1"
   inkscape:version="0.91 r13725"
   sodipodi:docname="icon_smartphone.svg"
   inkscape:export-filename="/home/sardylan/develop/myinfos/graphics/icon_smartphone.png"
   inkscape:export-xdpi="640.03003"
   inkscape:export-ydpi="640.03003">
  <defs
     id="defs4" />
  <sodipodi:namedview
     id="base"
     pagecolor="#ffffff"
     bordercolor="#666666"
     borderopacity="1.0"
     inkscape:pageopacity="0.0"
     inkscape:pageshadow="2"
     inkscape:zoom="11.2"
     inkscape:cx="22.309419"
     inkscape:cy="12.444458"
     inkscape:document-units="mm"
     inkscape:current-layer="layer1"
     showgrid="false"
     inkscape:window-width="1920"
     inkscape:window-height="1147"
     inkscape:window-x="1920"
     inkscape:window-y="0"
     inkscape:window-maximized="1" />
  <metadata
     id="metadata7">
    <rdf:RDF>
      <cc:Work
         rdf:about="">
        <dc:format>image/svg+xml</dc:format>
        <dc:type
           rdf:resource="http://purl.org/dc/dcmitype/StillImage" />
        <dc:title></dc:title>
      </cc:Work>
    </rdf:RDF>
  </metadata>
  <g
     inkscape:label="Layer 1"
     inkscape:groupmode="layer"
     id="layer1"
     transform="translate(0,-1009.8425)">
    <path
       style="fill:#000000"
       d="m 13.25345,1048.7526 c -0.94861,-0.1878 -1.74371,-0.9978 -1.95448,-1.9911 -0.11083,-0.5224 -0.11083,-30.7986 0,-31.321 0.17299,-0.8153 0.6776,-1.4487 1.44527,-1.8142 l 0.45001,-0.2142 7.78867,-0.021 c 5.6437,-0.015 7.90244,9e-4 8.20176,0.058 0.55563,0.1066 0.97575,0.3335 1.3625,0.7357 0.37524,0.3903 0.56539,0.7446 0.67364,1.2553 0.11069,0.5222 0.11069,30.7988 0,31.321 -0.10825,0.5107 -0.2984,0.865 -0.67364,1.2553 -0.37125,0.3861 -0.79035,0.6193 -1.31167,0.7299 -0.43496,0.092 -15.51743,0.098 -15.98206,0.01 z m 11.12187,-3.6673 0,-0.97 -3.13277,0.018 -3.13278,0.018 -0.0193,0.952 -0.0193,0.9519 3.15203,0 3.15204,0 0,-0.9699 z m 4.98475,-15.1613 0,-12.1849 -8.10022,0 -8.10021,0 0,12.1849 0,12.185 8.10021,0 8.10022,0 0,-12.185 z m -1.99733,-13.7136 c 0.0769,-0.041 0.18103,-0.1735 0.23147,-0.2942 0.23541,-0.5635 -0.27476,-1.0792 -0.8357,-0.8448 -0.26764,0.1118 -0.37544,0.2874 -0.37544,0.6114 0,0.4636 0.54792,0.7587 0.97967,0.5276 z m -2.64125,-0.5829 0,-0.3808 -3.46164,0 -3.46163,0 0,0.3808 0,0.3808 3.46163,0 3.46164,0 0,-0.3808 z"
       id="path4332"
       inkscape:connector-curvature="0" />
  </g>
</svg>
