<?xml version="1.0" encoding="UTF-8" standalone="no"?>
<!-- Created with Inkscape (http://www.inkscape.org/) -->

<svg
   xmlns:dc="http://purl.org/dc/elements/1.1/"
   xmlns:cc="http://creativecommons.org/ns#"
   xmlns:rdf="http://www.w3.org/1999/02/22-rdf-syntax-ns#"
   xmlns:svg="http://www.w3.org/2000/svg"
   xmlns="http://www.w3.org/2000/svg"
   xmlns:sodipodi="http://sodipodi.sourceforge.net/DTD/sodipodi-0.dtd"
   xmlns:inkscape="http://www.inkscape.org/namespaces/inkscape"
   width="12mm"
   height="12mm"
   viewBox="0 0 42.519685 42.519685"
   id="svg2"
   version="1.1"
   inkscape:version="0.91 r13725"
   sodipodi:docname="icon_network.svg"
   inkscape:export-filename="/home/sardylan/develop/myinfos/graphics/icon_network.png"
   inkscape:export-xdpi="640"
   inkscape:export-ydpi="640">
  <defs
     id="defs4" />
  <sodipodi:namedview
     id="base"
     pagecolor="#ffffff"
     bordercolor="#666666"
     borderopacity="1.0"
     inkscape:pageopacity="0.0"
     inkscape:pageshadow="2"
     inkscape:zoom="11.2"
     inkscape:cx="28.196841"
     inkscape:cy="18.612293"
     inkscape:document-units="mm"
     inkscape:current-layer="layer1"
     showgrid="false"
     inkscape:window-width="1920"
     inkscape:window-height="1147"
     inkscape:window-x="1920"
     inkscape:window-y="0"
     inkscape:window-maximized="1" />
  <metadata
     id="metadata7">
    <rdf:RDF>
      <cc:Work
         rdf:about="">
        <dc:format>image/svg+xml</dc:format>
        <dc:type
           rdf:resource="http://purl.org/dc/dcmitype/StillImage" />
        <dc:title></dc:title>
      </cc:Work>
    </rdf:RDF>
  </metadata>
  <g
     inkscape:label="Layer 1"
     inkscape:groupmode="layer"
     id="layer1"
     transform="translate(0,-1009.8425)">
    <path
       style="fill:#000000"
       d="m 11.584016,1048.7948 c -0.0384,-0.013 -0.18691,-0.043 -0.32994,-0.067 -0.3251,-0.054 -0.64599,-0.3194 -0.83483,-0.6895 -0.29963,-0.5873 -0.4629697,-0.1685 4.3799,-11.2304 2.44872,-5.5933 4.47897,-10.2383 4.51166,-10.3222 0.0515,-0.1323 0.0169,-0.1776 -0.25954,-0.3396 -1.06899,-0.6265 -1.90824,-2.1622 -1.90824,-3.4917 0,-1.0318 0.4557,-2.1023 1.22001,-2.8661 1.04907,-1.0483 2.48836,-1.4478 3.90807,-1.0847 0.76605,0.1959 1.3259,0.5165 1.89456,1.0847 0.76431,0.7638 1.22001,1.8343 1.22001,2.8661 0,1.3295 -0.83925,2.8652 -1.90825,3.4917 -0.27641,0.162 -0.31105,0.2073 -0.25954,0.3396 0.0327,0.084 2.06443,4.7289 4.51496,10.3222 4.85009,11.0702 4.68065,10.636 4.37942,11.2235 -0.44451,0.867 -1.58478,1.0275 -2.19933,0.3096 -0.15158,-0.1771 -0.63259,-1.1884 -1.41375,-2.9723 -0.65119,-1.4872 -1.21657,-2.7439 -1.25639,-2.7929 -0.0571,-0.07 -1.47746,0.2912 -6.73062,1.7124 -3.66202,0.9907 -6.6974,1.8163 -6.7453,1.8347 -0.0479,0.018 -0.28531,0.4891 -0.52759,1.0459 -0.48205,1.108 -0.68677,1.3746 -1.19253,1.5531 -0.31169,0.1099 -0.34053,0.1145 -0.46274,0.073 z m 8.35234,-6.6025 c 2.44106,-0.6568 4.50118,-1.2215 4.57807,-1.2548 0.13333,-0.058 0.13172,-0.064 -0.035,-0.1277 -1.01312,-0.3881 -7.2879,-2.6086 -7.3098,-2.5867 -0.0306,0.031 -2.33558,5.2949 -2.33558,5.3341 0,0.013 0.14939,-0.021 0.33199,-0.074 0.1826,-0.053 2.32922,-0.6341 4.77027,-1.2909 z m 5.63619,-3.5149 c -0.24787,-0.5805 -1.59664,-3.6536 -1.60928,-3.6667 -0.0175,-0.018 -4.3764,1.634 -4.41642,1.674 -0.0262,0.026 5.94553,2.2063 6.06935,2.2158 0.0293,0 0.01,-0.098 -0.0437,-0.2231 z m -4.2383,-5.0159 c 0.94182,-0.3561 1.71988,-0.6532 1.72902,-0.6602 0.0291,-0.022 -1.7602,-4.0916 -1.79908,-4.0916 -0.0284,0 -2.39047,5.344 -2.50498,5.6675 -0.0131,0.037 0.17556,-0.01 0.41936,-0.1004 0.2438,-0.092 1.21385,-0.4592 2.15568,-0.8153 z m -11.5769897,-1.8848 c -0.73261,-0.3259 -2.18426,-2.6716 -2.85562,-4.6143 -0.83114,-2.4051 -0.97138,-5.1455 -0.39037,-7.6279 0.55652,-2.3778 2.2556,-5.4735 3.29521,-6.0039 0.5117897,-0.2611 1.0903297,-0.1643 1.5068197,0.2522 0.54468,0.5447 0.56193,1.1564 0.0529,1.8757 -1.35697,1.9176 -1.8817697,3.0275 -2.2668097,4.794 -0.1878,0.8617 -0.25945,2.6823 -0.14101,3.5829 0.25526,1.9407 0.95403,3.6628 2.1377497,5.2683 0.25119,0.3407 0.49004,0.7431 0.53077,0.8941 0.16548,0.6135 -0.14582,1.2891 -0.72267,1.5683 -0.37166,0.1799 -0.75831,0.1835 -1.1469797,0.011 z m 22.0059797,0.064 c -0.33184,-0.1013 -0.76082,-0.5593 -0.85643,-0.9144 -0.14831,-0.5508 -0.0328,-0.8634 0.67394,-1.8234 1.03145,-1.4011 1.74714,-3.2238 1.98956,-5.067 0.11845,-0.9005 0.0468,-2.7212 -0.14101,-3.5828 -0.38503,-1.7666 -0.90983,-2.8765 -2.26681,-4.7941 -0.4622,-0.6531 -0.48208,-1.2415 -0.0597,-1.7668 0.24358,-0.303 0.49466,-0.4366 0.90804,-0.4832 0.6945,-0.078 1.19395,0.3258 2.09808,1.6972 1.48361,2.2504 2.25255,4.8391 2.25255,7.5835 0,2.1639 -0.42143,4.0218 -1.35555,5.9759 -0.61521,1.287 -1.70513,2.8509 -2.14555,3.0787 -0.27015,0.1397 -0.80222,0.1864 -1.09714,0.096 z m -17.38745,-2.643 c -0.47654,-0.2164 -1.19965,-1.1715 -1.76395,-2.3297 -1.06054,-2.1769 -1.24555,-4.8782 -0.49201,-7.1838 0.39241,-1.2006 1.27604,-2.7295 1.91048,-3.3055 0.51757,-0.4698 1.32234,-0.4431 1.82611,0.061 0.54404,0.5441 0.5617,1.1555 0.0542,1.8757 -0.96169,1.3648 -1.34866,2.3342 -1.49052,3.7337 -0.15982,1.5768 0.30824,3.3264 1.23379,4.6119 0.58151,0.8077 0.60123,0.851 0.60283,1.3238 10e-4,0.3721 -0.029,0.4803 -0.20384,0.7285 -0.39344,0.5586 -1.07865,0.7567 -1.67708,0.4848 z m 12.77444,0.053 c -0.34278,-0.099 -0.74657,-0.5388 -0.84188,-0.9173 -0.13408,-0.5325 -0.0224,-0.8736 0.52855,-1.6149 0.67991,-0.9147 1.15578,-2.1894 1.27066,-3.4037 0.16846,-1.7806 -0.27864,-3.2814 -1.48947,-4.9998 -0.40295,-0.5718 -0.46883,-1.1038 -0.19852,-1.6029 0.11417,-0.2108 0.4484,-0.505 0.66801,-0.588 0.27221,-0.1029 0.77653,-0.093 1.04807,0.02 0.28113,0.1175 0.80652,0.6919 1.22384,1.338 2.01014,3.1124 2.00852,7.2683 -0.004,10.3989 -0.81222,1.2634 -1.37044,1.61 -2.2052,1.3693 z"
       id="path4217"
       inkscape:connector-curvature="0" />
  </g>
</svg>
