<?xml version="1.0" encoding="UTF-8" standalone="no"?>
<!-- Created with Inkscape (http://www.inkscape.org/) -->

<svg
   xmlns:dc="http://purl.org/dc/elements/1.1/"
   xmlns:cc="http://creativecommons.org/ns#"
   xmlns:rdf="http://www.w3.org/1999/02/22-rdf-syntax-ns#"
   xmlns:svg="http://www.w3.org/2000/svg"
   xmlns="http://www.w3.org/2000/svg"
   xmlns:sodipodi="http://sodipodi.sourceforge.net/DTD/sodipodi-0.dtd"
   xmlns:inkscape="http://www.inkscape.org/namespaces/inkscape"
   width="12mm"
   height="12mm"
   viewBox="0 0 42.519685 42.519685"
   id="svg2"
   version="1.1"
   inkscape:version="0.91 r13725"
   sodipodi:docname="icon_sim.svg"
   inkscape:export-filename="/home/sardylan/develop/myinfos/graphics/icon_sim.png"
   inkscape:export-xdpi="639.23334"
   inkscape:export-ydpi="639.23334">
  <defs
     id="defs4" />
  <sodipodi:namedview
     id="base"
     pagecolor="#ffffff"
     bordercolor="#666666"
     borderopacity="1.0"
     inkscape:pageopacity="0.0"
     inkscape:pageshadow="2"
     inkscape:zoom="15.839192"
     inkscape:cx="18.915924"
     inkscape:cy="17.400963"
     inkscape:document-units="mm"
     inkscape:current-layer="layer1"
     showgrid="false"
     inkscape:window-width="1920"
     inkscape:window-height="1147"
     inkscape:window-x="1920"
     inkscape:window-y="0"
     inkscape:window-maximized="1" />
  <metadata
     id="metadata7">
    <rdf:RDF>
      <cc:Work
         rdf:about="">
        <dc:format>image/svg+xml</dc:format>
        <dc:type
           rdf:resource="http://purl.org/dc/dcmitype/StillImage" />
        <dc:title></dc:title>
      </cc:Work>
    </rdf:RDF>
  </metadata>
  <g
     inkscape:label="Layer 1"
     inkscape:groupmode="layer"
     id="layer1"
     transform="translate(0,-1009.8425)">
    <path
       style="fill:#000000"
       d="m 11.129573,1048.6928 c -1.201268,-0.3235 -2.113425,-1.1844 -2.470454,-2.3315 -0.139813,-0.4492 -0.144591,-0.9534 -0.144591,-15.2569 0,-14.3036 0.0048,-14.8077 0.144591,-15.2569 0.36199,-1.1631 1.275828,-2.0157 2.503176,-2.3353 0.639467,-0.1666 14.114459,-0.169 15.217337,-0 3.781267,0.57 6.746479,3.4088 7.479603,7.1609 0.139972,0.7164 0.145922,1.2459 0.145922,12.9866 0,11.7983 -0.0052,12.2565 -0.144591,12.7043 -0.361989,1.163 -1.275828,2.0156 -2.503175,2.3353 -0.636163,0.1657 -19.611673,0.1621 -20.227818,-0 z m 20.147141,-1.5002 c 0.470782,-0.2133 0.78305,-0.4953 1.01803,-0.9194 l 0.222188,-0.4011 0.02001,-12.0574 c 0.02202,-13.2673 0.04024,-12.6932 -0.445532,-14.0357 -0.256404,-0.7086 -0.848096,-1.7113 -1.37938,-2.3375 -0.815568,-0.9613 -2.25319,-1.8754 -3.532802,-2.2462 -1.121594,-0.325 -1.966587,-0.356 -9.048478,-0.3315 l -6.601615,0.023 -0.447275,0.2196 c -0.46309,0.2274 -0.832305,0.6416 -1.016064,1.1401 -0.128343,0.3481 -0.140813,29.2961 -0.01278,29.6717 0.23561,0.6913 0.831455,1.223 1.525481,1.3612 0.182729,0.036 4.625193,0.061 9.872142,0.055 8.797876,-0.011 9.562164,-0.022 9.826073,-0.1412 z m -17.489844,-1.2509 c -1.296084,-0.3484 -2.313346,-1.5148 -2.525292,-2.8953 -0.0559,-0.3642 -0.07475,-2.911 -0.05874,-7.9372 0.02354,-7.3905 0.02381,-7.4017 0.189875,-7.8398 0.368291,-0.9716 0.964539,-1.6165 1.90772,-2.0632 l 0.518284,-0.2455 7.441127,0 7.441126,0 0.518284,0.2455 c 0.963071,0.4561 1.581682,1.1382 1.915883,2.1124 0.157153,0.4581 0.160206,0.5873 0.183244,7.7544 0.01532,4.7654 -0.0042,7.4998 -0.05634,7.899 -0.187723,1.4369 -1.206304,2.6205 -2.558028,2.9725 -0.660629,0.172 -14.276417,0.1695 -14.917144,-0 z m 2.359583,-3.6184 0,-2.2896 -1.717183,0 -1.717183,0 4.58e-4,1.431 c 2.29e-4,0.7871 0.03595,1.5589 0.07937,1.7153 0.166831,0.6007 0.821916,1.2042 1.47696,1.3607 0.130208,0.031 0.605936,0.06 1.057174,0.064 l 0.8204,0.01 0,-2.2896 z m 4.350197,0 0,-2.2896 -1.450066,0 -1.450065,0 0,2.2387 c 0,1.2313 0.02289,2.2616 0.05088,2.2896 0.02798,0.028 0.680513,0.051 1.450066,0.051 l 1.399186,0 0,-2.2896 z m 4.408572,-0.019 0.02022,-2.2705 -1.451202,0 -1.451201,0 0,2.2913 0,2.2912 1.430986,-0.021 1.430986,-0.021 0.02021,-2.2705 z m 3.831193,2.0385 c 0.464384,-0.2516 0.870668,-0.7281 0.991383,-1.1628 0.05084,-0.183 0.0791,-2.1521 0.07937,-5.5312 l 4.57e-4,-5.2469 -8.547755,0 -8.547756,0 0,3.0909 0,3.0909 6.353577,10e-4 6.353578,0 0.305277,0.1708 c 0.201147,0.1125 0.36385,0.2868 0.476995,0.511 0.167707,0.3323 0.171718,0.3989 0.171718,2.8516 l 0,2.5114 0.973071,-0.031 c 0.903256,-0.029 1.002991,-0.047 1.390112,-0.2571 z m -12.589962,-15.7262 0,-2.2589 -1.01123,0.029 c -1.124648,0.032 -1.399072,0.1216 -1.865504,0.6091 -0.49489,0.5172 -0.554089,0.7739 -0.555956,2.4108 l -0.0017,1.4691 1.717183,0 1.717183,0 0,-2.2589 z m 4.350197,0.01 0,-2.2514 -1.450066,0 -1.450065,0 0,2.2514 0,2.2514 1.450065,0 1.450066,0 0,-2.2514 z m 4.426516,0 0,-2.2514 -1.450065,0 -1.450066,0 0,2.2514 0,2.2514 1.450066,0 1.450065,0 0,-2.2514 z m 4.882756,0.7823 c -0.0019,-1.6368 -0.06107,-1.8935 -0.555956,-2.4108 -0.466431,-0.4875 -0.740856,-0.5771 -1.865504,-0.6091 l -1.01123,-0.029 0,2.2589 0,2.2589 1.717183,0 1.717183,0 -0.0017,-1.4691 z"
       id="path4198"
       inkscape:connector-curvature="0" />
  </g>
</svg>
